PathFileType	4	(X/Y/Z)	/Users/itak/Documents/Research/Walk-IL/dataset/trc/00287_00010.trc
DataRate	CameraRate	NumFrames	NumMarkers	Units	OrigDataRate	OrigDataStartFrame	OrigNumFrames
100.000000	100.000000	4	54	mm	100.000000	256	683
Frame#	Time	RPSI			LPSI			L3			STRN			T10			C7			CLAV			RBAK			LBAK			LSHO			LUPA			LAEL			LAOL			LWTS			LWPS			LFRA			LHPS			LHTS			RSHO			RUPA			RAEL			RAOL			RWTS			RWPS			RFRA			RHTS			RHPS			RBHD			LFHD			RFHD			LBHD			LHIP			RHIP			RASI			LASI			LKNE			LTHI			LANK			LTIP			LTOE			LMT1			LMT5			LHEE			RKNE			RTHI			RANK			RTIP			RTOE			RMT1			RMT5			RHEE			RIFD			LIFD			*53			
		X1	Y1	Z1	X2	Y2	Z2	X3	Y3	Z3	X4	Y4	Z4	X5	Y5	Z5	X6	Y6	Z6	X7	Y7	Z7	X8	Y8	Z8	X9	Y9	Z9	X10	Y10	Z10	X11	Y11	Z11	X12	Y12	Z12	X13	Y13	Z13	X14	Y14	Z14	X15	Y15	Z15	X16	Y16	Z16	X17	Y17	Z17	X18	Y18	Z18	X19	Y19	Z19	X20	Y20	Z20	X21	Y21	Z21	X22	Y22	Z22	X23	Y23	Z23	X24	Y24	Z24	X25	Y25	Z25	X26	Y26	Z26	X27	Y27	Z27	X28	Y28	Z28	X29	Y29	Z29	X30	Y30	Z30	X31	Y31	Z31	X32	Y32	Z32	X33	Y33	Z33	X34	Y34	Z34	X35	Y35	Z35	X36	Y36	Z36	X37	Y37	Z37	X38	Y38	Z38	X39	Y39	Z39	X40	Y40	Z40	X41	Y41	Z41	X42	Y42	Z42	X43	Y43	Z43	X44	Y44	Z44	X45	Y45	Z45	X46	Y46	Z46	X47	Y47	Z47	X48	Y48	Z48	X49	Y49	Z49	X50	Y50	Z50	X51	Y51	Z51	X52	Y52	Z52	X53	Y53	Z53	X54	Y54	Z54	

257	2.56	-684.8341674804688	979.2694702148438	221.0905609130859	-859.9435424804688	976.8380737304688	229.2882232666016	-784.1751708984375	1048.4072265625	210.0373229980469	-759.7512817382812	1227.107177734375	-39.57780075073242	-788.0234375	1162.291015625	226.7139587402344	-785.8909301757812	1407.733520507812	185.1410217285156	-761.375244140625	1328.708374023438	24.54104614257812	-726.0663452148438	1264.777709960938	239.8138732910156	-892.0892333984375	1379.206298828125	185.4345703125	-928.7562866210938	1388.34765625	88.40195465087891	-1014.740112304688	1279.971069335938	106.9606781005859	-1056.542236328125	1084.540283203125	95.08148193359375	-1002.807678222656	1056.827270507812	159.6287078857422	-1036.480834960938	889.1602172851562	-30.16900253295898	-1101.364013671875	876.0154418945312	-0.3747296035289764	-1079.69384765625	989.7485961914062	63.11582183837891	-1107.609130859375	791.9612426757812	-28.57771873474121	-1066.906372070312	804.738037109375	-79.02280426025391	-622.0875854492188	1381.78271484375	141.8435821533203	-559.0889892578125	1325.791748046875	164.5117950439453	-535.4798583984375	1065.4375	224.0445709228516	-629.826416015625	1060.284057617188	217.6971130371094	-547.7279052734375	832.2866821289062	134.4402618408203	-500.1125793457031	833.1045532226562	205.3635101318359	-516.8987426757812	996.2974243164062	214.9149780273438	-528.6542358398438	712.4739379882812	131.0061645507812	-500.7461547851562	718.8742065429688	196.37841796875	-727.3628540039062	1557.814697265625	189.4111938476562	-756.6083984375	1608.551635742188	-15.84085845947266	-673.4346313476562	1598.315185546875	25.7776927947998	-857.9345703125	1564.286499023438	121.8735275268555	-960.2073974609375	928.9943237304688	167.4875640869141	-591.3059692382812	926.0552978515625	112.9759368896484	-672.4568481445312	928.982421875	1.639995574951172	-924.3662109375	934.146484375	26.12431716918945	-992.482177734375	460.3817443847656	98.1195068359375	-991.7590942382812	603.8163452148438	108.2094039916992	-976.5094604492188	221.9709930419922	471.5667114257812	-993.9470825195312	325.8898315429688	282.2997741699219	-882.5843505859375	41.05265808105469	417.9773864746094	-856.2991943359375	109.5793685913086	450.67724609375	-967.8878173828125	100.6353454589844	444.4095458984375	-923.91796875	270.8013610839844	492.9362182617188	-713.1973876953125	474.5305786132812	-21.00097846984863	-625.7001953125	724.025390625	18.17878341674805	-814.87109375	45.95130157470703	19.62076950073242	-749.1622314453125	353.2633666992188	-42.6680793762207	-882.81103515625	46.32260513305664	-174.4821014404297	-916.9302978515625	44.37287139892578	-114.1821746826172	-802.19189453125	37.52730178833008	-85.98458099365234	-864.1724243164062	42.11465454101562	72.5615234375	-560.4133911132812	647.884033203125	155.8297729492188	-1059.833129882812	716.0963745117188	-87.55493927001953	nan	nan	nan	
258	2.57	-684.83251953125	981.1054077148438	213.1134338378906	-859.9588623046875	977.5197143554688	219.3370971679688	-783.8497314453125	1049.716186523438	200.7536315917969	-758.5465087890625	1228.083984375	-48.90288162231445	-787.8052978515625	1163.77978515625	217.2703399658203	-785.7228393554688	1409.231811523438	175.2374420166016	-760.4182739257812	1329.712646484375	14.95702743530273	-725.9312133789062	1266.406982421875	230.5641937255859	-891.78662109375	1380.4755859375	175.0652465820312	-928.1268310546875	1389.508178710938	77.84510040283203	-1013.811157226562	1280.771850585938	96.16225433349609	-1054.521606445312	1084.28369140625	84.44210052490234	-1001.179931640625	1058.08349609375	149.9864501953125	-1030.398681640625	885.7650756835938	-35.88886642456055	-1095.881958007812	873.2220458984375	-7.256488800048828	-1076.09375	988.6068725585938	53.79387283325195	-1100.820556640625	788.031005859375	-32.58820343017578	-1058.780395507812	799.2174682617188	-82.29502105712891	-621.6035766601562	1383.291870117188	132.8576202392578	-558.6566772460938	1327.411010742188	155.9485473632812	-534.3397216796875	1067.157348632812	215.8210754394531	-628.719970703125	1061.77294921875	209.5888214111328	-546.2229614257812	835.408447265625	122.8759384155273	-498.5697937011719	834.8876953125	193.67578125	-515.7491455078125	997.9320068359375	205.9630432128906	-526.7740478515625	715.7948608398438	116.7219848632812	-498.7865295410156	720.86279296875	182.2481536865234	-726.9266967773438	1559.4345703125	179.6383209228516	-753.5729370117188	1609.376708984375	-26.17852210998535	-670.9489135742188	1598.970581054688	16.48781204223633	-856.752685546875	1566.15185546875	110.4657897949219	-959.4031372070312	929.2862548828125	156.4165954589844	-590.21630859375	927.5569458007812	106.2294998168945	-670.0684204101562	930.3017578125	-6.091743469238281	-922.2199096679688	935.027099609375	15.38601303100586	-992.4003295898438	462.250244140625	70.96498870849609	-991.5717163085938	605.3449096679688	86.83175659179688	-982.5166625976562	225.6371459960938	445.0787353515625	-996.9314575195312	328.3642578125	254.4202270507812	-887.8271484375	44.35232925415039	391.0735168457031	-862.2619018554688	113.0000534057617	425.1873779296875	-973.7478637695312	104.974006652832	416.2922973632812	-930.3327026367188	274.1749572753906	468.0730285644531	-711.6712646484375	474.1560974121094	-22.73142242431641	-623.9573974609375	724.3294677734375	13.12370777130127	-814.6155395507812	45.7364616394043	19.64729309082031	-747.8118896484375	352.8422546386719	-43.55312347412109	-882.7355346679688	46.3734016418457	-174.3632354736328	-916.8109741210938	44.53107070922852	-114.1481628417969	-802.0574340820312	37.41064453125	-85.96897888183594	-864.0310668945312	42.14044189453125	72.60388946533203	-558.3324584960938	650.511962890625	140.1150512695312	-1050.802368164062	710.4044189453125	-87.29175567626953	nan	nan	nan	
259	2.58	-684.9729614257812	982.8361206054688	205.4828796386719	-860.0857543945312	978.339599609375	209.3314056396484	-783.5696411132812	1051.011108398438	191.6426696777344	-757.291259765625	1229.032836914062	-58.07205963134766	-787.5999755859375	1165.239868164062	207.9662017822266	-785.6199951171875	1410.723510742188	165.4072875976562	-759.4824829101562	1330.6572265625	5.508478164672852	-725.8389892578125	1268.039672851562	221.5152740478516	-891.4907836914062	1381.693237304688	164.7675323486328	-927.521240234375	1390.603393554688	67.34401702880859	-1012.889465332031	1281.514526367188	85.49740600585938	-1052.4150390625	1084.041015625	74.05786895751953	-999.4918823242188	1059.293334960938	140.5152893066406	-1024.386474609375	882.5020141601562	-41.27170562744141	-1090.483642578125	870.5736083984375	-13.87272357940674	-1072.498779296875	987.5161743164062	44.71413803100586	-1094.276123046875	784.3836059570312	-36.33866500854492	-1050.835083007812	793.993408203125	-85.17149353027344	-621.1263427734375	1384.771728515625	124.0505065917969	-558.2317504882812	1328.955078125	147.5573120117188	-533.2208862304688	1068.744506835938	207.5627288818359	-627.6116943359375	1063.120727539062	201.4354248046875	-544.7075805664062	838.4706420898438	111.1543350219727	-496.9428405761719	836.7012329101562	181.7895812988281	-514.6051025390625	999.4810180664062	196.9141693115234	-524.7003784179688	719.1486206054688	102.2863616943359	-496.6045837402344	722.9622802734375	167.9449462890625	-726.4586791992188	1561.05224609375	169.8923187255859	-750.4719848632812	1610.099853515625	-36.46526718139648	-668.4240112304688	1599.5283203125	7.241034984588623	-855.5009765625	1567.99755859375	99.09538269042969	-958.6681518554688	929.818359375	145.1116943359375	-589.1812744140625	928.8330688476562	100.0662612915039	-667.3491821289062	931.5589599609375	-13.46522617340088	-919.7326049804688	935.9605102539062	4.536240577697754	-991.4505615234375	464.7492065429688	43.80326080322266	-990.8621826171875	607.3330688476562	65.39082336425781	-988.0355834960938	228.3370513916016	417.8369445800781	-999.2759399414062	330.6528625488281	226.04248046875	-894.05908203125	47.23666000366211	361.4017944335938	-868.4747314453125	114.9682312011719	397.5658874511719	-979.8773193359375	108.7536163330078	386.2907104492188	-935.976318359375	276.0440063476562	442.7033386230469	-710.1533203125	473.7899169921875	-24.17508506774902	-622.0925903320312	724.4976806640625	8.548309326171875	-814.3309326171875	45.53703308105469	19.6787166595459	-746.5272216796875	352.4713745117188	-44.27066421508789	-882.6548461914062	46.41144180297852	-174.2522583007812	-916.68701171875	44.68949508666992	-114.1077880859375	-801.9405517578125	37.29970932006836	-85.96281433105469	-863.9185180664062	42.16407012939453	72.63671875	-555.94580078125	653.1810913085938	124.3457870483398	-1042.135620117188	705.1243896484375	-86.64255523681641	nan	nan	nan	
260	2.59	-685.2727661132812	984.4527587890625	198.1719055175781	-860.3453979492188	979.2916870117188	199.2518768310547	-783.345947265625	1052.296020507812	182.6737060546875	-755.9174194335938	1229.982788085938	-67.10338592529297	-787.4183959960938	1166.679565429688	198.7920532226562	-785.5824584960938	1412.21630859375	155.6522064208984	-758.5283203125	1331.572631835938	-3.800825595855713	-725.8093872070312	1269.677490234375	212.6643524169922	-891.211181640625	1382.869506835938	154.5106506347656	-926.9179077148438	1391.643676757812	56.8672981262207	-1011.960388183594	1282.221313476562	74.94139099121094	-1050.184936523438	1083.85498046875	63.95893096923828	-997.6869506835938	1060.497192382812	131.2491760253906	-1018.471557617188	879.415283203125	-46.33016204833984	-1085.1787109375	868.0939331054688	-20.19295310974121	-1068.9052734375	986.5108642578125	35.91725158691406	-1087.98779296875	781.0494995117188	-39.83747863769531	-1043.150756835938	789.132080078125	-87.70350646972656	-620.6643676757812	1386.23828125	115.4499893188477	-557.8176879882812	1330.444091796875	139.3766937255859	-532.1566772460938	1070.20849609375	199.2845611572266	-626.5247802734375	1064.343872070312	193.2195129394531	-543.1870727539062	841.4832763671875	99.30216217041016	-495.2452392578125	838.5671997070312	169.7560119628906	-513.48095703125	1000.968383789062	187.7908782958984	-522.4337158203125	722.5487670898438	87.74341583251953	-494.2562866210938	725.1767578125	153.5319976806641	-725.970458984375	1562.668579101562	160.1779632568359	-747.3016967773438	1610.72021484375	-46.69538497924805	-665.8582153320312	1599.987060546875	-1.958770990371704	-854.1763305664062	1569.8271484375	87.76610565185547	-957.998779296875	930.6095581054688	133.5416870117188	-588.2139892578125	929.866455078125	94.45652008056641	-664.271240234375	932.7637939453125	-20.5010929107666	-916.8610229492188	936.98291015625	-6.431104183197021	-989.5963134765625	467.849609375	16.81354713439941	-989.6036987304688	609.7601928710938	43.98346710205078	-993.1019897460938	230.05322265625	389.8959350585938	-1000.946044921875	332.6587524414062	197.2760162353516	-901.0519409179688	49.49555206298828	329.4186401367188	-874.8790283203125	115.4800796508789	368.1486206054688	-986.1537475585938	111.9054641723633	354.7037353515625	-940.932861328125	276.3976440429688	416.82861328125	-708.6541748046875	473.4213562011719	-25.33721160888672	-620.1493530273438	724.5125122070312	4.425615787506104	-814.034423828125	45.36323547363281	19.71707344055176	-745.2835083007812	352.1341552734375	-44.80989837646484	-882.57080078125	46.43727111816406	-174.1507568359375	-916.5582885742188	44.84365844726562	-114.0619430541992	-801.837890625	37.19552612304688	-85.96469116210938	-863.8367919921875	42.18997192382812	72.66115570068359	-553.29296875	655.915771484375	108.5587692260742	-1033.907104492188	700.3147583007812	-85.71435546875	nan	nan	nan	
